<svg width="18" height="18" viewBox="0 0 18 18" fill="none" xmlns="http://www.w3.org/2000/svg">
<path fill-rule="evenodd" clip-rule="evenodd" d="M6.94377 0.780834C6.92773 0.608754 6.86047 0.445445 6.75063 0.311999C6.63502 0.16996 6.47646 0.0692681 6.29874 0.0250377C6.12102 -0.0191841 5.93372 -0.00454935 5.76503 0.066736C2.37849 1.4753 0 4.79869 0 8.67335C0 13.8216 4.20115 18 9.38787 18C10.7856 18.0022 12.1662 17.6925 13.4291 17.0934C14.6919 16.4943 15.8051 15.621 16.6876 14.5371C16.8033 14.3969 16.8695 14.2224 16.8758 14.0407C16.8821 13.859 16.8282 13.6803 16.7224 13.5324C16.6223 13.3902 16.4824 13.2806 16.3203 13.2174C16.1582 13.1542 15.9811 13.1401 15.8111 13.1769C15.2564 13.295 14.6792 13.3569 14.0863 13.3569C9.5409 13.3569 5.85279 9.69377 5.85279 5.16995C5.85046 3.8101 6.19017 2.4715 6.84062 1.27729C6.92389 1.12585 6.95984 0.952906 6.94377 0.780834ZM2.31562 4.47845C3.07495 3.21085 4.16356 2.17264 5.46576 1.47418C4.97185 2.60822 4.69957 3.85815 4.69957 5.17108C4.69957 10.3193 8.89959 14.4977 14.0863 14.4977C14.479 14.4977 14.8649 14.4741 15.2441 14.4268C14.4772 15.1993 13.5648 15.812 12.5596 16.2296C11.5544 16.6471 10.4763 16.8611 9.38787 16.8592C4.84244 16.8592 1.15323 13.196 1.15323 8.67335C1.1546 7.19573 1.55629 5.74607 2.31562 4.47845Z" fill="inherit"/>
<path d="M12.2332 3.41972C12.1916 3.44977 12.1605 3.49217 12.1444 3.54089L11.7089 4.84819C11.6132 5.13562 11.4518 5.39679 11.2376 5.611C11.0233 5.82523 10.7621 5.98661 10.4747 6.08237L9.16733 6.51777C9.11861 6.53389 9.07624 6.56497 9.04616 6.60658C9.01612 6.64818 8.99995 6.69821 8.99995 6.74953C8.99995 6.80085 9.01612 6.85086 9.04616 6.89247C9.07624 6.93407 9.11861 6.96515 9.16733 6.98129L10.4747 7.41667C10.7621 7.51244 11.0233 7.67382 11.2376 7.88804C11.4518 8.10226 11.6132 8.36343 11.7089 8.65085L12.1444 9.95816C12.1605 10.0069 12.1916 10.0493 12.2332 10.0793C12.2748 10.1094 12.3248 10.1256 12.3762 10.1256C12.4275 10.1256 12.4775 10.1094 12.5191 10.0793C12.5607 10.0493 12.5918 10.0069 12.6079 9.95816L13.0433 8.65085C13.1391 8.36343 13.3005 8.10226 13.5147 7.88804C13.729 7.67382 13.9901 7.51244 14.2776 7.41667L15.5849 6.98129C15.6337 6.96515 15.6761 6.93407 15.7061 6.89247C15.7362 6.85086 15.7524 6.80085 15.7524 6.74953C15.7524 6.69821 15.7362 6.64818 15.7061 6.60658C15.6761 6.56497 15.6337 6.53389 15.5849 6.51777L14.2776 6.08237C13.6948 5.88774 13.238 5.43097 13.0433 4.84819L12.6079 3.54089C12.5918 3.49217 12.5607 3.44977 12.5191 3.41972C12.4775 3.38967 12.4275 3.3735 12.3762 3.3735C12.3248 3.3735 12.2748 3.38967 12.2332 3.41972Z" fill="inherit"/>
<path d="M15.6569 0.0311491C15.6292 0.0508138 15.6084 0.0785897 15.5973 0.110623L15.307 0.981412C15.1777 1.37068 14.8728 1.67556 14.4835 1.80494L13.6126 2.09521C13.5806 2.10631 13.5528 2.12712 13.5332 2.15475C13.5135 2.18237 13.5029 2.21543 13.5029 2.24934C13.5029 2.28324 13.5135 2.31631 13.5332 2.34393C13.5528 2.37155 13.5806 2.39236 13.6126 2.40347L14.4835 2.69373C14.6753 2.75755 14.8497 2.86521 14.9926 3.00817C15.1356 3.15111 15.2432 3.32543 15.307 3.51727L15.5973 4.38805C15.6084 4.42009 15.6292 4.44786 15.6569 4.46752C15.6845 4.48718 15.7175 4.49775 15.7515 4.49775C15.7854 4.49775 15.8184 4.48718 15.8461 4.46752C15.8737 4.44786 15.8945 4.42009 15.9056 4.38805L16.1959 3.51727C16.2597 3.32543 16.3674 3.15111 16.5103 3.00817C16.6533 2.86521 16.8276 2.75755 17.0194 2.69373L17.8903 2.40347C17.9223 2.39236 17.9501 2.37155 17.9698 2.34393C17.9894 2.31631 18 2.28324 18 2.24934C18 2.21543 17.9894 2.18237 17.9698 2.15475C17.9501 2.12712 17.9223 2.10631 17.8903 2.09521L17.0194 1.80494C16.6302 1.67556 16.3253 1.37068 16.1959 0.981412L15.9056 0.110623C15.8988 0.090864 15.8882 0.0727272 15.8747 0.0571054C15.8662 0.0474061 15.8566 0.0386854 15.8461 0.0311491C15.8184 0.0114931 15.7854 0.000926877 15.7515 0.000926877C15.7175 0.000926877 15.6845 0.0114931 15.6569 0.0311491Z" fill="inherit"/>
</svg>
