<svg xmlns="http://www.w3.org/2000/svg" xmlns:xlink="http://www.w3.org/1999/xlink" version="1.1" id="Character" x="0px" y="0px" viewBox="0 0 1920 1080" style="enable-background:new 0 0 1920 1080;" xml:space="preserve">
<style type="text/css">
	.st0{fill:#ffbb55;}
	.st1{opacity:0.13;fill:#5656b8;}
	.st2{fill:#ffcc88;}
	.st3{fill:#fffadd;}
	.st4{fill:#ff9902;}
	.st5{fill:#FFE3CA;}
	.st6{fill:#666;}
	.st7{fill:#272d3e;}
	.st8{fill:#FCD2B1;}
	.st9{fill:#ff9902;}
</style>
<path class="st0" d="M1211.89,946.81c6.45-2.92-156.78-250.1,0-360.25c12.95-9.09,160.73,65.94,188.02,18.19  s172.8-68.98,147.79-110.66c-25.01-41.68,52.29-257.68-113.68-237.22S1349.88,59.06,1193,106.81s-302.4-59.12-325.14,77.31  s-126.65-31.74-206.76,34.11s-35.88,95.49-21.42,120.51c14.46,25.01,102.49,73.82,49.34,114.41  c-53.14,40.6,80.19,93.76,140.88,16.96c0,0,248.53,330.19,0,441.6C829.91,911.69,898.81,1088.78,1211.89,946.81z"/>
<ellipse class="st1" cx="492.51" cy="1032.62" rx="88.37" ry="10.5"/>
<ellipse class="st1" cx="720.88" cy="1013.81" rx="55.36" ry="6.58"/>
<circle class="st2" cx="848.23" cy="271.2" r="141.36"/>
<circle class="st2" cx="787.29" cy="352.73" r="141.36"/>
<circle class="st2" cx="1314.78" cy="271.2" r="141.36"/>
<circle class="st2" cx="1392.09" cy="396.96" r="141.36"/>
<circle class="st2" cx="960" cy="174.07" r="81.53"/>
<circle class="st2" cx="1207.07" cy="174.07" r="81.53"/>
<circle class="st2" cx="989.59" cy="382.27" r="81.53"/>
<circle class="st2" cx="1027.1" cy="271.2" r="81.53"/>
<circle class="st2" cx="1154.79" cy="410.63" r="127.7"/>
<circle class="st2" cx="1110.83" cy="198.98" r="127.7"/>
<circle class="st2" cx="926.13" cy="473.82" r="127.7"/>
<circle class="st2" cx="1108.63" cy="509.97" r="127.7"/>
<circle class="st2" cx="1302.68" cy="485.35" r="200.49"/>
<circle class="st3" cx="1271.61" cy="441.05" r="200.49"/>
<circle class="st3" cx="1114.29" cy="360.73" r="200.49"/>
<circle class="st3" cx="960" cy="401.25" r="153.18"/>
<circle class="st2" cx="798.43" cy="918.93" r="48.58"/>
<circle class="st2" cx="855.33" cy="950.62" r="48.58"/>
<circle class="st3" cx="881.41" cy="281.92" r="153.18"/>
<circle class="st3" cx="1053.9" cy="211.37" r="153.18"/>
<circle class="st3" cx="1271.61" cy="255.6" r="90.59"/>
<circle class="st3" cx="1425.67" cy="396.96" r="90.59"/>
<path class="st2" d="M969.74,641.54c0,0,40.06,73.67,19.86,221.65s-52,128.84-52,128.84s153.09,31.82,187.95-18.19  c0,0-72.47-230.4-54.42-294.06C1071.12,679.78,1034.2,745.25,969.74,641.54z"/>
<path class="st2" d="M1137.67,664.62c0,0-12.13,128.84,83.37,277.39c0,0-79.96,45.65-118.85,49.45  c-38.89,3.79-26.32-160.08-32.38-257.1C1069.81,734.36,1131.61,838.94,1137.67,664.62z"/>
<path class="st2" d="M934.77,693.75c0,0,37.01,148.94-104.86,217.95c-25.71,12.51-23.08,46.61-23.08,46.61  s115.82,51.99,160.91,38.73c45.09-13.26,46.33-124.72,34.28-204.93c0,0-13.74,41.44-21.08,6.05c-7.34-35.39-18.71-14.24-25.53-6.05  C948.58,800.28,958.47,716.81,934.77,693.75z"/>
<path class="st3" d="M1058.85,984.45c0,0-19.74-270.35,19.33-342.91c0,0-22.74,285.3,0,332.29  C1100.92,1020.83,1041.73,1000.82,1058.85,984.45z"/>
<g>
	<path class="st4" d="M630.14,710.73c0,0,0.72-6.35-4.46-15.54c0,0,6.23,0.15,11.08,1.37c4.85,1.22-0.6-7.23,7.62-8.51   c8.22-1.28,28.81,22.75,29.15,11.5c0,0,13.42,13.51,4.98,21.86c-8.44,8.35-15.22,25.49-34.22,21.08S630.14,710.73,630.14,710.73z"/>
	<path class="st4" d="M691.14,940.05l5.51-0.38l11.77,1.18l12.45,22.13c-5.71,4.76-9.2,6.93-14.85-6.13   c-5.8-13.4-14.17-5.97-14.17-5.97L691.14,940.05z"/>
	<path class="st4" d="M496.91,1022.12c0,0-30.68-0.58-31.14-1.34c-0.46-0.76,5.01-12.89,14.14-10.61   c9.13,2.28,8.07-11.62,8.07-11.62l12.95,1.31c0.1,0.29,2.1,10.29,1.73,15.29l1.02,6.24L496.91,1022.12z"/>
	<g>
		<path class="st5" d="M591.89,735.24c0,0-10.25-98.24-6.63-101.19s6.03-19.7-0.73-13.19c-10.65,10.25-26.23,53.69-5.95,115.38    S591.89,735.24,591.89,735.24z"/>
		<path class="st5" d="M577.58,632c0,0,1.47-28.26,6.76-32.72c5.29-4.46,7.11,9.32,7.11,9.32s-3,6.88-2.93,11.76    c0.07,4.88-0.16,0.65-0.16,0.65s2.19,1.09,5.4-6.2c1.85-4.2,4.65-1.89,3.78-0.34c-0.87,1.55-1.78,4.29-1.87,7.68    s-7.78,8.92-11.61,11.48c-3.82,2.55-5.72-1.43-5.72-1.43"/>
	</g>
	<g>
		<path class="st5" d="M675.8,766.34c0,0,88.23-44.4,88.76-49.04c0.53-4.65,13.33-15.71,11.5-6.51    c-2.88,14.5-31.04,51.07-93.91,67.28C619.27,794.29,675.8,766.34,675.8,766.34z"/>
		<path class="st5" d="M770.43,722.66c0,0,22.99-16.49,23.89-23.35c0.9-6.86-11.68-0.95-11.68-0.95s-4.17,6.24-8.31,8.81    c-4.14,2.58-0.46,0.48-0.46,0.48s-2.1-1.25,2.31-7.9c2.54-3.82-0.92-4.94-1.75-3.37c-0.84,1.57-2.65,3.81-5.46,5.72    c-2.81,1.91-3.31,11.37-3.4,15.96c-0.08,4.6,4.29,4.05,4.29,4.05"/>
	</g>
	<path class="st6" d="M610.21,751.06c0,0-17.14-16.96-19.68-32.09l-19.42,7.35c0,0,11.31,42.97,24.96,44.22   C609.71,771.8,610.21,751.06,610.21,751.06z"/>
	<path class="st6" d="M644,761.73c0,0,23.7,4.42,37.59-2.12l5.03,20.15c0,0-32.32,15.51-41.13,5.01   C636.67,774.27,644,761.73,644,761.73z"/>
	<path class="st7" d="M536.1,866.76c0,0-25.09,20.73-39.14,39.72c-14.05,18.99-10.38,95.68-10.38,95.68l16.08,1.14   c0,0,10.83-74.92,13.47-81.65c2.64-6.73,41.33-19.4,57.93-29.37c7.18-4.31,22.46,6.56,22.46,6.56S611.54,846.37,536.1,866.76z"/>
	<path class="st7" d="M573.12,880.39c0,0,22.02,83.32,34.5,91.25c12.48,7.93,86.88-20.59,86.88-20.59l3.12-12.54   c0,0-57.32-10.1-76.27,7.35l7.29-63.75C628.65,882.12,582.69,854.83,573.12,880.39z"/>
	<path class="st6" d="M607.16,747.92c-15.8,5.01-29.51,72.92-50.81,91.76c-9.07,8.02-20.24,27.08-20.24,27.08   s76.99,33.97,92.55,15.36c0,0,49.6-105.37,4.94-130.57C623.98,746.12,615.25,745.35,607.16,747.92z"/>
	<path class="st8" d="M629.08,730.8c0,0-0.96,13.37-11.92,17.89c-10.95,4.52,9.62,22.57,21.27,12.78c0,0-2.83-10.52,8.45-29.39   C646.89,732.08,636.68,720.72,629.08,730.8z"/>
	<path class="st5" d="M660.41,728.69c1.34,0.79,9.24-2.27,8.84,3.47c-0.4,5.73-9.21,7.56-10.99,4.92c0,0-18.9,8.06-30.2-0.46   c-11.3-8.52,16.25-43.78,18.28-34.95c2.31,10.01,15.5,10.48,14.22,16.22S654.87,725.42,660.41,728.69z"/>
</g>
<circle class="st2" cx="926.13" cy="960.85" r="48.58"/>
<circle class="st2" cx="989.59" cy="960.85" r="48.58"/>
<circle class="st2" cx="1068.03" cy="963.13" r="48.58"/>
<circle class="st2" cx="1140.79" cy="950.62" r="48.58"/>
<circle class="st2" cx="1207.07" cy="936.29" r="48.58"/>
<circle class="st2" cx="1245.73" cy="918.93" r="48.58"/>
<circle class="st2" cx="1189.37" cy="914.55" r="68.55"/>
<circle class="st2" cx="863.94" cy="912.27" r="57.19"/>
<circle class="st2" cx="835.87" cy="936.29" r="48.58"/>
<path class="st9" d="M1169.65,857.03c-0.9-0.99,40.03-76.78,40.03-76.78l-13.97,76.78l64.54-32.8l-25.88,48.07l-100.3,48.58  L1169.65,857.03z"/>
<path class="st9" d="M897.34,861.55c0.9-0.99-40.03-76.78-40.03-76.78l13.97,76.78l-64.54-32.8l25.88,48.07l100.3,48.58  L897.34,861.55z"/>
<circle class="st3" cx="1223.03" cy="920.88" r="48.58"/>
<path class="st9" d="M921.13,902.04c8.88-0.96,68.46-142.4,68.46-142.4L960,898.11l23.14,56.34l36.32-11.51l4.36-257.1l30,264.78h67  c0,0-42.39-186.87-4.21-299.58c0,0-38.36,266.1,38.18,291.91c0,0-167,53.1-213.32,24.57C895.15,938.98,921.13,902.04,921.13,902.04z  "/>
<ellipse class="st3" cx="1031.57" cy="950.62" rx="68.39" ry="48.58"/>
<ellipse class="st3" cx="1092.21" cy="954.45" rx="68.39" ry="48.58"/>
<circle class="st3" cx="1158.49" cy="934.52" r="48.58"/>
<circle class="st3" cx="847.01" cy="920.88" r="48.58"/>
<ellipse class="st3" cx="933.62" cy="942.94" rx="68.39" ry="48.58"/>
</svg>