<svg width="18" height="18" viewBox="0 0 18 18" fill="none" xmlns="http://www.w3.org/2000/svg">
<path d="M9.70709 0.292892C9.51956 0.105358 9.26523 0 9 0C8.73477 0 8.48044 0.105358 8.29291 0.292892C8.10535 0.480431 8 0.734783 8 1V3C8 3.26522 8.10535 3.51957 8.29291 3.70711C8.48044 3.89464 8.73477 4 9 4C9.26523 4 9.51956 3.89464 9.70709 3.70711C9.89465 3.51957 10 3.26522 10 3V1C10 0.734783 9.89465 0.480431 9.70709 0.292892Z" fill="inherit"/>
<path d="M2.87546 2C2.64325 2 2.42059 2.09222 2.25638 2.25637C2.09222 2.42058 2 2.64326 2 2.87545C2 3.10764 2.09222 3.33032 2.25638 3.49453L3.49454 4.73268C3.57529 4.81631 3.67194 4.88302 3.77875 4.92891C3.88559 4.9748 4.00049 4.99896 4.11676 4.99997C4.23303 5.00098 4.34833 4.97882 4.45593 4.9348C4.56354 4.89077 4.66132 4.82575 4.74353 4.74353C4.82574 4.66132 4.89078 4.56355 4.93478 4.45594C4.97882 4.34832 5.00098 4.23302 4.99997 4.11675C4.99896 4.00049 4.97479 3.88559 4.92892 3.77876C4.88303 3.67192 4.81631 3.5753 4.73267 3.49453L3.49454 2.25637C3.33032 2.09222 3.10764 2 2.87546 2Z" fill="inherit"/>
<path d="M12 9C12 9.39396 11.9224 9.78407 11.7716 10.1481C11.6209 10.512 11.3999 10.8427 11.1213 11.1213C10.8427 11.3999 10.512 11.6209 10.148 11.7716C9.78409 11.9224 9.39395 12 9 12C8.60605 12 8.21591 11.9224 7.85196 11.7716C7.48798 11.6209 7.15726 11.3999 6.87869 11.1213C6.6001 10.8427 6.37912 10.512 6.22836 10.1481C6.07761 9.78407 6 9.39396 6 9C6 8.20435 6.31607 7.44129 6.87869 6.87868C7.44128 6.31607 8.20435 6 9 6C9.79565 6 10.5587 6.31607 11.1213 6.87868C11.6839 7.44129 12 8.20435 12 9Z" fill="inherit"/>
<path d="M0 9C0 8.73478 0.105347 8.48043 0.292908 8.29289C0.480438 8.10536 0.734772 8 1 8H3C3.26523 8 3.51956 8.10536 3.70709 8.29289C3.89465 8.48043 4 8.73478 4 9C4 9.26522 3.89465 9.51957 3.70709 9.70711C3.51956 9.89464 3.26523 10 3 10H1C0.734772 10 0.480438 9.89464 0.292908 9.70711C0.105347 9.51957 0 9.26522 0 9Z" fill="inherit"/>
<path d="M14.2929 8.29289C14.1053 8.48043 14 8.73478 14 9C14 9.26522 14.1053 9.51957 14.2929 9.70711C14.4804 9.89464 14.7348 10 15 10H17C17.2652 10 17.5196 9.89464 17.7071 9.70711C17.8947 9.51957 18 9.26522 18 9C18 8.73478 17.8947 8.48043 17.7071 8.29289C17.5196 8.10536 17.2652 8 17 8H15C14.7348 8 14.4804 8.10536 14.2929 8.29289Z" fill="inherit"/>
<path d="M14.5 13.2485L15.7515 14.5C15.9128 14.6669 16.002 14.8905 16 15.1226C15.998 15.3547 15.9049 15.5767 15.7408 15.7408C15.5767 15.9049 15.3546 15.9979 15.1226 16C14.8905 16.002 14.6669 15.9128 14.5 15.7515L13.2485 14.5C13.0872 14.3331 12.998 14.1095 13 13.8774C13.002 13.6453 13.0951 13.4233 13.2592 13.2592C13.4233 13.0951 13.6454 13.0021 13.8774 13C14.1095 12.998 14.3331 13.0872 14.5 13.2485Z" fill="inherit"/>
<path d="M9 14C9.26523 14 9.51956 14.1054 9.70709 14.2929C9.89465 14.4804 10 14.7348 10 15V17C10 17.2652 9.89465 17.5196 9.70709 17.7071C9.51956 17.8946 9.26523 18 9 18C8.73477 18 8.48044 17.8946 8.29291 17.7071C8.10535 17.5196 8 17.2652 8 17V15C8 14.7348 8.10535 14.4804 8.29291 14.2929C8.48044 14.1054 8.73477 14 9 14Z" fill="inherit"/>
<path d="M15.7436 2.25637C15.9078 2.42058 16 2.64326 16 2.87545C16 3.10764 15.9078 3.33032 15.7436 3.49453L14.5055 4.73268C14.4247 4.81631 14.3281 4.88302 14.2213 4.92891C14.1144 4.9748 13.9995 4.99896 13.8832 4.99997C13.767 5.00098 13.6517 4.97882 13.5441 4.9348C13.4365 4.89077 13.3387 4.82575 13.2565 4.74353C13.1743 4.66132 13.1092 4.56355 13.0652 4.45594C13.0212 4.34832 12.999 4.23302 13 4.11675C13.001 4.00049 13.0252 3.88559 13.0711 3.77876C13.117 3.67192 13.1837 3.5753 13.2673 3.49453L14.5055 2.25637C14.6697 2.09222 14.8924 2 15.1245 2C15.3568 2 15.5794 2.09222 15.7436 2.25637Z" fill="inherit"/>
<path d="M5 13.8818C5 13.6479 4.9071 13.4236 4.74176 13.2582C4.57639 13.0929 4.35208 13 4.11823 13C3.88437 13 3.66006 13.0929 3.49469 13.2582L2.24759 14.5053C2.08691 14.6717 1.99802 14.8945 2.00003 15.1257C2.00204 15.3569 2.09479 15.5782 2.25833 15.7417C2.42184 15.9052 2.64307 15.998 2.8743 16C3.10556 16.002 3.32834 15.9131 3.49469 15.7524L4.74176 14.5053C4.9071 14.3399 5 14.1156 5 13.8818Z" fill="inherit"/>
</svg>
