<svg width="256" height="310" viewBox="0 0 256 310" fill="none" xmlns="http://www.w3.org/2000/svg">
<path d="M20.624 53.686L0 64V245.02L20.624 255.274L20.748 255.125V53.828L20.624 53.686Z" fill="#9D5025"/>
<path d="M131 229L20.624 255.274V53.686L131 79.387V229Z" fill="#F68536"/>
<path d="M81.178 187.866L127.996 193.826L128.29 193.148L128.553 116.378L127.996 115.778L81.178 121.652V187.866" fill="#9D5025"/>
<path d="M127.996 229.295L235.367 255.33L235.536 255.061L235.533 53.866L235.363 53.686L127.996 79.682V229.295" fill="#9D5025"/>
<path d="M174.827 187.866L127.996 193.826V115.778L174.827 121.652V187.866Z" fill="#F68536"/>
<path d="M174.827 89.631L127.996 98.166L81.178 89.631L127.937 77.375L174.827 89.631Z" fill="#6B3A19"/>
<path d="M174.827 219.801L127.996 211.21L81.178 219.801L127.939 232.854L174.827 219.801Z" fill="#FBBF93"/>
<path d="M81.178 89.631L127.996 78.045L128.375 77.928V0.313L127.996 0L81.178 23.413V89.631Z" fill="#9D5025"/>
<path d="M174.827 89.631L127.996 78.045V0L174.827 23.413V89.631Z" fill="#F68536"/>
<path d="M127.996 309.428L81.173 286.023V219.806L127.996 231.388L128.685 232.171L128.498 308.077L127.996 309.428Z" fill="#9D5025"/>
<path d="M127.996 309.428L174.823 286.023V219.806L127.996 231.388V309.428" fill="#F68536"/>
<path d="M235.367 53.686L256 64V245.02L235.367 255.33V53.686Z" fill="#F68536"/>
</svg>
