<svg width="256" height="310" viewBox="0 0 256 310" fill="none" xmlns="http://www.w3.org/2000/svg">
<path d="M0 245.262L16.322 253.423L19 248.668V59.333L16.322 55.839L0 64V245.262Z" fill="#9D5025"/>
<path d="M47.678 63.57L16.322 55.839V253.423L47.678 246.121V63.57Z" fill="#F68536"/>
<path d="M143.893 78.604L166.228 67.007L240.537 95.785L220.779 98.362L143.893 78.604Z" fill="#6B3A19"/>
<path d="M144.752 230.658L166.658 242.255L240.966 213.477L221.208 210.899L144.752 230.658" fill="#FBBF93"/>
<path d="M150.336 198.872L189.423 204.027L191.667 200V110L189.423 105.235L150.336 110.389V198.872Z" fill="#9D5025"/>
<path d="M35.651 45.96L59.705 33.933L62.333 39V270L59.705 275.329L35.651 263.302V45.96" fill="#9D5025"/>
<path d="M108.671 259.007L59.705 274.899V33.933L108.671 49.826V259.007Z" fill="#F68536"/>
<path d="M89.772 289.933L128 309.262L132 304.667V5.667L128 0L89.772 19.329V289.933Z" fill="#9D5025"/>
<path d="M219.919 98.362L239.678 95.785L241.375 98.25V211L239.678 213.906L219.919 211.329V98.362" fill="#9D5025"/>
<path d="M189.423 105.235V204.456L230.228 154.631L189.423 105.235" fill="#F68536"/>
<path d="M239.678 55.839L128 0V309.262L256 245.262V64L239.678 55.839ZM239.678 214.056L166.228 235.992V73.27L239.678 95.206V214.056V214.056Z" fill="#F68536"/>
</svg>
