<svg width="256" height="153" viewBox="0 0 256 153" fill="none" xmlns="http://www.w3.org/2000/svg">
<path d="M72.392 55.438C72.392 58.575 72.732 61.118 73.325 62.983C74.0778 65.0812 74.9843 67.121 76.037 69.086C76.461 69.764 76.63 70.442 76.63 71.036C76.63 71.883 76.122 72.731 75.02 73.579L69.68 77.139C68.917 77.648 68.154 77.902 67.475 77.902C66.628 77.902 65.78 77.478 64.932 76.715C63.79 75.4876 62.7683 74.1535 61.881 72.731C61.033 71.291 60.185 69.679 59.253 67.73C52.641 75.528 44.333 79.428 34.331 79.428C27.211 79.428 21.531 77.393 17.377 73.325C13.224 69.255 11.105 63.83 11.105 57.049C11.105 49.844 13.648 43.995 18.819 39.587C23.989 35.179 30.856 32.975 39.587 32.975C42.469 32.975 45.436 33.229 48.572 33.653C51.709 34.077 54.93 34.755 58.321 35.518V29.33C58.321 22.887 56.964 18.395 54.336 15.767C51.624 13.139 47.046 11.867 40.519 11.867C37.552 11.867 34.501 12.207 31.364 12.97C28.228 13.732 25.176 14.665 22.209 15.852C20.853 16.445 19.836 16.784 19.242 16.954C18.649 17.124 18.225 17.208 17.886 17.208C16.699 17.208 16.106 16.36 16.106 14.58V10.426C16.106 9.06999 16.276 8.05299 16.699 7.45999C17.123 6.86599 17.886 6.27299 19.073 5.67999C22.04 4.15399 25.6 2.88199 29.753 1.86499C33.908 0.762991 38.316 0.254991 42.978 0.254991C53.066 0.254991 60.441 2.54299 65.188 7.12099C69.85 11.698 72.224 18.649 72.224 27.974V55.438H72.394H72.392ZM37.976 68.323C40.774 68.323 43.656 67.815 46.707 66.797C49.759 65.78 52.472 63.915 54.76 61.372C56.117 59.762 57.134 57.982 57.642 55.947C58.151 53.913 58.49 51.454 58.49 48.572V45.012C55.9193 44.3863 53.3155 43.9052 50.691 43.571C48.0482 43.2353 45.387 43.0653 42.723 43.062C37.043 43.062 32.89 44.164 30.093 46.453C27.295 48.742 25.939 51.963 25.939 56.201C25.939 60.185 26.956 63.152 29.075 65.187C31.11 67.306 34.077 68.323 37.976 68.323ZM106.045 77.478C104.519 77.478 103.502 77.224 102.824 76.63C102.146 76.122 101.552 74.935 101.044 73.325L81.124 7.79899C80.614 6.10299 80.36 5.00099 80.36 4.40799C80.36 3.05199 81.038 2.28799 82.395 2.28799H90.702C92.312 2.28799 93.415 2.54299 94.008 3.13599C94.686 3.64499 95.195 4.83199 95.703 6.44199L109.944 62.559L123.168 6.44199C123.592 4.74699 124.101 3.64499 124.778 3.13599C125.457 2.62799 126.644 2.28899 128.17 2.28899H134.951C136.561 2.28899 137.664 2.54299 138.341 3.13599C139.02 3.64499 139.613 4.83199 139.952 6.44199L153.346 63.237L168.01 6.44199C168.518 4.74699 169.112 3.64499 169.705 3.13599C170.383 2.62799 171.485 2.28899 173.011 2.28899H180.894C182.251 2.28899 183.014 2.96699 183.014 4.40799C183.014 4.83199 182.929 5.25599 182.844 5.76399C182.759 6.27299 182.59 6.95099 182.251 7.88399L161.821 73.409C161.313 75.105 160.72 76.207 160.041 76.715C159.363 77.224 158.261 77.563 156.821 77.563H149.531C147.92 77.563 146.818 77.309 146.139 76.715C145.461 76.122 144.868 75.02 144.529 73.325L131.389 18.649L118.335 73.239C117.912 74.935 117.403 76.037 116.725 76.63C116.047 77.224 114.86 77.478 113.335 77.478H106.044H106.045ZM214.972 79.767C210.564 79.767 206.156 79.258 201.918 78.241C197.679 77.224 194.374 76.121 192.17 74.851C190.813 74.087 189.88 73.24 189.542 72.477C189.212 71.7288 189.039 70.9208 189.033 70.103V65.78C189.033 64 189.711 63.152 190.983 63.152C191.502 63.1539 192.017 63.24 192.509 63.407C193.017 63.577 193.78 63.915 194.628 64.254C197.622 65.5709 200.748 66.5655 203.952 67.221C207.272 67.8949 210.652 68.2355 214.04 68.238C219.38 68.238 223.534 67.306 226.416 65.441C229.298 63.576 230.824 60.864 230.824 57.388C230.824 55.015 230.061 53.065 228.535 51.454C227.009 49.844 224.127 48.403 219.974 47.046L207.682 43.232C201.494 41.282 196.917 38.4 194.119 34.585C191.322 30.855 189.881 26.702 189.881 22.294C189.881 18.734 190.644 15.597 192.17 12.884C193.695 10.172 195.73 7.79899 198.273 5.93399C200.816 3.98399 203.698 2.54299 207.089 1.52599C210.479 0.508991 214.039 0.0849915 217.769 0.0849915C219.634 0.0849915 221.584 0.169991 223.449 0.423991C225.399 0.677991 227.179 1.01699 228.959 1.35599C230.654 1.77999 232.265 2.20399 233.791 2.71299C235.317 3.22099 236.503 3.72999 237.351 4.23799C238.538 4.91699 239.385 5.59499 239.894 6.35799C240.403 7.03599 240.657 7.96799 240.657 9.15499V13.139C240.657 14.919 239.979 15.852 238.707 15.852C238.029 15.852 236.927 15.512 235.487 14.834C230.654 12.63 225.229 11.528 219.211 11.528C214.379 11.528 210.564 12.291 207.936 13.902C205.309 15.512 203.952 17.971 203.952 21.446C203.952 23.82 204.8 25.854 206.495 27.465C208.191 29.075 211.327 30.686 215.82 32.127L227.857 35.942C233.96 37.892 238.368 40.604 240.996 44.079C243.624 47.555 244.896 51.539 244.896 55.947C244.896 59.592 244.132 62.898 242.691 65.78C241.166 68.662 239.131 71.205 236.503 73.24C233.875 75.359 230.739 76.885 227.094 77.987C223.279 79.174 219.295 79.767 214.972 79.767V79.767Z" fill="white"/>
<path d="M230.993 120.964C203.105 141.563 162.585 152.498 127.746 152.498C78.919 152.498 34.925 134.442 1.69602 104.434C-0.931978 102.061 1.44102 98.84 4.57702 100.704C40.519 121.558 84.853 134.188 130.713 134.188C161.653 134.188 195.645 127.746 226.925 114.522C231.587 112.402 235.571 117.574 230.993 120.964V120.964ZM242.607 107.74C239.047 103.163 219.041 105.536 209.971 106.638C207.258 106.978 206.834 104.604 209.293 102.824C225.229 91.634 251.423 94.856 254.474 98.585C257.526 102.4 253.626 128.593 238.707 141.139C236.419 143.089 234.215 142.072 235.232 139.529C238.622 131.136 246.167 112.233 242.607 107.74V107.74Z" fill="#FF9900"/>
</svg>
