<svg width="256" height="308" viewBox="0 0 256 308" fill="none" xmlns="http://www.w3.org/2000/svg">
<path d="M166.01 127.465L225.212 121.151L255.888 127.52L255.999 127.588L199.441 130.962L165.957 127.52L166.01 127.465V127.465Z" fill="#6B3A19"/>
<path d="M165.958 127.521L225.162 122.896L225.569 122.303L225.571 49.259L225.164 48.424L165.958 63.821V127.521" fill="#9D5025"/>
<path d="M256 127.59L225.162 122.896L225.164 48.424L255.999 63.852L256 127.59Z" fill="#F68536"/>
<path d="M165.958 180.115L166.823 180.721L225.172 184.68L254.944 180.721L255.999 180.142L199.442 176.667L165.958 180.115Z" fill="#FBBF93"/>
<path d="M165.958 180.115L225.172 184.52L225.355 184.766L225.31 258.708L225.164 259.094L165.958 243.819V180.115" fill="#9D5025"/>
<path d="M255.999 180.142L225.172 184.52L225.164 259.094L255.999 243.785V180.142Z" fill="#F68536"/>
<path d="M89.119 127.408L30.589 122.394L0.195014 127.44L0.00201416 127.591L56.559 130.965L89.433 127.589L89.119 127.409V127.408Z" fill="#6B3A19"/>
<path d="M0.00201416 127.59L30.559 123.116L31.458 122.479V49.279L30.559 48.424L0.00201416 63.855V127.59Z" fill="#9D5025"/>
<path d="M89.433 127.588L30.559 123.116V48.424L89.436 63.821L89.433 127.588Z" fill="#F68536"/>
<path d="M89.433 180.142L88.082 181.127L30.559 185.44L0.976 181.127L0 180.142L56.559 176.667L89.433 180.142Z" fill="#FBBF93"/>
<path d="M0 180.142L30.558 184.482L31.335 185.434L31.418 257.767L30.559 259.094L0.002 243.785L0 180.142Z" fill="#9D5025"/>
<path d="M89.433 180.142L30.558 184.482L30.559 259.094L89.433 243.819V180.142Z" fill="#F68536"/>
<path d="M189.104 189.66L128.001 183.634L66.289 189.661L67.159 190.396L127.7 200.013L188.233 190.396L189.104 189.66Z" fill="#FBBF93"/>
<path d="M66.289 189.661L127.7 198.659L128.323 199.492L128.402 306.451L127.7 307.637L66.289 276.931V189.661" fill="#9D5025"/>
<path d="M189.104 189.66L127.7 198.659V307.637L189.105 276.931L189.104 189.66" fill="#F68536"/>
<path d="M128.001 123.933L66.289 117.975L66.448 117.884L127.697 108.382L188.919 117.906L189.105 117.975L128.001 123.933V123.933Z" fill="#6B3A19"/>
<path d="M66.289 117.975L127.7 109.026L127.994 108.758L127.858 0.165L127.7 0L66.289 30.709V117.975" fill="#9D5025"/>
<path d="M189.105 117.975L127.7 109.026V0L189.105 30.709V117.975" fill="#F68536"/>
</svg>
