<svg width="256" height="310" viewBox="0 0 256 310" fill="none" xmlns="http://www.w3.org/2000/svg">
<path d="M73.871 282.05L127.968 309.101L133.252 305.159L131.028 3.598L127.968 0L73.871 27.051V282.05Z" fill="#9D5025"/>
<path d="M182.065 282.05L127.968 309.101V0L182.065 27.051V282.05Z" fill="#F68536"/>
<path d="M107.571 112.513L88.587 115.277L0 105.296L0.375 104.313L14.75 100L16.279 100.866L16.625 100L107 110.563L107.571 112.513Z" fill="#6B3A19"/>
<path d="M0 63.988L16.279 55.844V100.866L0 105.296V63.988Z" fill="#9D5025"/>
<path d="M256 131.063L165.339 135.932L148.364 134.768L151.562 133.438L239.937 128.375L256 131.063Z" fill="#6B3A19"/>
<path d="M107.571 112.513L16.279 100.866V55.844L107.571 77.258V112.513Z" fill="#F68536"/>
<path d="M239.656 82.225L148.364 97.916V134.768L239.656 129.29L240.187 128.25L240 83.063L239.656 82.225" fill="#9D5025"/>
<path d="M256 131.063L239.656 128.938V82.225L256 88.21V131.063Z" fill="#F68536"/>
</svg>
