<svg width="256" height="310" viewBox="0 0 256 310" fill="none" xmlns="http://www.w3.org/2000/svg">
<path d="M256 137.042L193.848 139.617L153.559 137.047L220.199 130.66L256 137.042Z" fill="#6B3A19"/>
<path d="M220.055 133.45L256 137.042V64.636L220.055 46.661L217.295 49.641V130.369L220.055 133.45" fill="#F68536"/>
<path d="M153.559 64.594L220.055 46.597V133.45L153.559 137.047V64.594" fill="#9D5025"/>
<path d="M0 137.042L62.152 139.617L102.441 137.047L35.991 129.93L0 137.042Z" fill="#6B3A19"/>
<path d="M35.945 133.45L0 136.935V64.31L35.945 46.365L37.6 49.456V130.737L35.945 133.45" fill="#9D5025"/>
<path d="M102.441 64.594L35.945 46.597V133.45L102.441 137.047V64.594Z" fill="#F68536"/>
<path d="M256 174.486L193.848 171.91L153.559 174.481L219.909 181.188L256 174.486Z" fill="#FBBF93"/>
<path d="M220.055 178.078L256 174.486V246.891L220.055 264.866L218.167 260.755V181.772L220.055 178.078Z" fill="#F68536"/>
<path d="M153.559 246.934L220.055 264.931V178.078L153.559 174.481V246.934" fill="#9D5025"/>
<path d="M0 174.486L62.152 171.91L102.441 174.481L35.51 181.769L0 174.486Z" fill="#FBBF93"/>
<path d="M35.945 178.078L0 174.486V246.891L35.945 264.866L38.124 261.626V181.769L35.945 178.078" fill="#9D5025"/>
<path d="M102.441 246.934L35.945 264.931V178.078L102.441 174.481V246.934" fill="#F68536"/>
<path d="M95.553 106.629L128.519 100.848L194.333 110.167L200.002 113.428L168.036 116.926L95.553 106.629Z" fill="#6B3A19"/>
<path d="M160.447 106.629L127.481 100.848L58.833 111.5L55.998 113.428L87.964 116.926L160.447 106.629Z" fill="#6B3A19"/>
<path d="M95.553 204.899L128.519 210.68L194.167 201.5L200.002 198.1L168.036 194.602L95.553 204.899Z" fill="#FBBF93"/>
<path d="M160.447 204.899L127.481 210.68L58.333 200.833L55.998 198.1L87.964 194.602L160.447 204.899Z" fill="#FBBF93"/>
<path d="M200.002 113.428V77.641L166.289 66.616V19.776L128 0.634003V0.635003L126.403 3.178L126.112 305.766L128 309.657L166.289 290.515V244.912L200.002 233.887V198.1L166.289 204.035V107.493L200.002 113.428" fill="#F68536"/>
<path d="M89.711 19.776V66.616L55.998 77.641V113.428L89.711 107.493V204.035L55.998 198.1V233.887L89.711 244.912V290.515L128 309.657V0.634003L89.711 19.776Z" fill="#9D5025"/>
</svg>
